<svg xmlns="http://www.w3.org/2000/svg" width="275.806" height="37.666" viewBox="0 0 275.806 37.666"><defs><style>.a{fill:#fe2c25;}.b{fill:#2785fc;}.c{fill:#ffba00;}.d{fill:#00a050;}.e{fill:#707070;}</style></defs><g transform="translate(-13.991 -0.957)"><g transform="translate(13.991 0.957)"><path class="a" d="M93.886,48.317,71.73,60.708a6.512,6.512,0,0,1-8.737-2.265,6.09,6.09,0,0,1,2.133-8.368l.2-.119L87.486,37.565a6.505,6.505,0,0,1,8.737,2.265,6.084,6.084,0,0,1-2.133,8.342A1.631,1.631,0,0,1,93.886,48.317Z" transform="translate(-62.131 -36.727)"/><path class="b" d="M87.492,79.562,65.343,67.151A6.09,6.09,0,0,1,62.88,58.9L63,58.69a6.512,6.512,0,0,1,8.731-2.272L93.892,68.81a6.1,6.1,0,0,1,2.456,8.257l-.118.211A6.512,6.512,0,0,1,87.492,79.562Z" transform="translate(-62.137 -43.169)"/><path class="c" d="M134.461,79.572l22.162-12.391a6.084,6.084,0,0,0,2.456-8.25l-.118-.211a6.505,6.505,0,0,0-8.737-2.265L128.068,68.82a6.1,6.1,0,0,0-2.449,8.257l.119.211A6.512,6.512,0,0,0,134.461,79.572Z" transform="translate(-83.566 -43.179)"/><path class="d" d="M128.062,48.317l22.156,12.391a6.512,6.512,0,0,0,8.737-2.265,6.09,6.09,0,0,0-2.133-8.368l-.2-.119L134.456,37.565a6.505,6.505,0,0,0-8.737,2.265,6.09,6.09,0,0,0,2.133,8.342A1.7,1.7,0,0,0,128.062,48.317Z" transform="translate(-83.561 -36.727)"/></g><path class="e" d="M225.218,71.542V44.33h7.861a14.387,14.387,0,0,1,5.452.909,8.856,8.856,0,0,1,3.608,2.634,10.777,10.777,0,0,1,2.015,4.227,23.366,23.366,0,0,1,.612,5.623,19.812,19.812,0,0,1-.658,5.524,13.433,13.433,0,0,1-1.692,3.806,9.021,9.021,0,0,1-2.337,2.423,11.667,11.667,0,0,1-2.634,1.317,11.3,11.3,0,0,1-2.509.586,19.625,19.625,0,0,1-1.975.125ZM220.55,40.4V75.473h12.036a21.069,21.069,0,0,0,7.565-1.231,13.168,13.168,0,0,0,5.267-3.562,14.609,14.609,0,0,0,3.048-5.748,28.313,28.313,0,0,0,.981-7.829q0-8.454-4.372-12.576T232.6,40.4Zm54.866,10.265h4.418a12.3,12.3,0,0,0-1.106-4.984,9.632,9.632,0,0,0-2.746-3.463,11.318,11.318,0,0,0-4.056-2.008,18.39,18.39,0,0,0-5.011-.658,17.626,17.626,0,0,0-4.688.612,12.793,12.793,0,0,0-4.076,1.863,9.409,9.409,0,0,0-2.871,3.193,9.218,9.218,0,0,0-1.08,4.609,7.664,7.664,0,0,0,.955,4,7.782,7.782,0,0,0,2.555,2.634,14.809,14.809,0,0,0,3.608,1.62q2.015.612,4.1,1.08l4.1.909a18.738,18.738,0,0,1,3.608,1.159,6.953,6.953,0,0,1,2.555,1.837,4.431,4.431,0,0,1,.961,2.95A5.412,5.412,0,0,1,273.8,71.1a9.434,9.434,0,0,1-2.871,1.007,17.652,17.652,0,0,1-3.167.29,14.741,14.741,0,0,1-3.832-.487,9.626,9.626,0,0,1-3.292-1.521,7.618,7.618,0,0,1-3.121-6.439h-4.4a12.338,12.338,0,0,0,1.159,5.531,10.475,10.475,0,0,0,3.141,3.825,13.6,13.6,0,0,0,4.609,2.239,20.47,20.47,0,0,0,5.577.711,21.07,21.07,0,0,0,4.839-.566,13.879,13.879,0,0,0,4.378-1.817,10.291,10.291,0,0,0,3.22-3.239,10.009,10.009,0,0,0,.3-9.112,8.56,8.56,0,0,0-2.555-2.851,13.623,13.623,0,0,0-3.595-1.791c-1.317-.441-2.706-.83-4.1-1.152s-2.759-.658-4.1-.909a21.656,21.656,0,0,1-3.615-1.06,7.071,7.071,0,0,1-2.555-1.646,3.667,3.667,0,0,1-.955-2.634,5.676,5.676,0,0,1,.659-2.871,5.148,5.148,0,0,1,1.764-1.844,7.8,7.8,0,0,1,2.542-.968,14.327,14.327,0,0,1,2.9-.3,9.876,9.876,0,0,1,5.972,1.7A7.3,7.3,0,0,1,275.416,50.664Zm36.213.3h4.662a13.069,13.069,0,0,0-1.666-4.938,12.121,12.121,0,0,0-3.193-3.555,13.827,13.827,0,0,0-4.372-2.16,17.883,17.883,0,0,0-5.228-.737,16.783,16.783,0,0,0-7.144,1.449,14.761,14.761,0,0,0-5.208,3.951,17.35,17.35,0,0,0-3.167,5.873,23.36,23.36,0,0,0-1.08,7.19,24.743,24.743,0,0,0,1.007,7.177A16.644,16.644,0,0,0,289.256,71a13.991,13.991,0,0,0,5.063,3.852,16.868,16.868,0,0,0,7.117,1.4q6.736,0,10.614-3.687t4.569-10.337h-4.662a13.471,13.471,0,0,1-.909,4.056,9.81,9.81,0,0,1-2.041,3.213,9.218,9.218,0,0,1-3.095,2.114,10.535,10.535,0,0,1-4.082.764,11.529,11.529,0,0,1-5.4-1.185,10.574,10.574,0,0,1-3.713-3.167,13.577,13.577,0,0,1-2.133-4.662,22.625,22.625,0,0,1-.658-5.676,20.346,20.346,0,0,1,.658-5.307,13.826,13.826,0,0,1,2.133-4.543,10.679,10.679,0,0,1,3.687-3.167,11.444,11.444,0,0,1,5.379-1.179,10.877,10.877,0,0,1,6.36,1.87,8.685,8.685,0,0,1,3.463,5.6Zm20.378-10.535h6.387l8.783,27.732h.086l8.994-27.752h6.235L350.508,75.48h-6.821Zm33.994,0h6.137V75.473H366Zm10.311,0H404.7v5.28H393.536V75.473h-6.11V45.706H376.3Z" transform="translate(-114.905 -37.638)"/></g></svg>